<svg id="7a342dcb-c8d8-4521-be25-da384408988d" data-name="Layer 1" xmlns="http://www.w3.org/2000/svg" width="103" height="103" viewBox="0 0 103 103">
  <defs>
    <style>
      .dfcf87f5-2a73-4441-a8a5-150962eb12a9 {
        fill: #027bff;
      }
    </style>
  </defs>
  <title>navCircleBackground</title>
  <path class="dfcf87f5-2a73-4441-a8a5-150962eb12a9" d="M103,.2913V9.42994a1.91848,1.91848,0,0,1-1.58.71281,30.34948,30.34948,0,0,0-11.79956,2.863A18.48242,18.48242,0,0,0,80.544,22.929c-1.86295,4.498-2.48461,9.2774-2.86576,14.138-.28777,3.66978.00174,7.35114-.479,11.01929a36.74691,36.74691,0,0,1-6.721,17.007A39.58917,39.58917,0,0,1,57.81062,76.43642a42.65849,42.65849,0,0,1-15.69426,5.25027,36.28692,36.28692,0,0,1-4.6377.30576,87.76979,87.76979,0,0,0-18.01974,1.4784A26.60551,26.60551,0,0,0,7.81736,88.5405,18.56231,18.56231,0,0,0,1.653,98.42626c-.33913,1.25875-.56927,2.5474-.84163,3.82435-.08547.40076-.15919,1.17407-.84424.45431a6.27423,6.27423,0,0,1-.07128-1.48213q-.00378-49.60152-.002-99.203c0-2.04535.00155-2.04692,1.90661-2.04694q49.74692-.00066,99.49383.00747C101.8701-.01955,102.49458-.20395,103,.2913Z"/>
</svg>
